# xmcd
#
# Track frame offsets:
#	150
#	17810
#	34365
#	48336
#	64267
#	82118
#	98451
#	119932
#	138612
#	149962
#	160133
#	175743
#	191059
#	208659
#	225550
#	243056
#	255646
#	268929
#	287519
#	304629
#	318755
#	334827
#
# Disc length: 4649 seconds
#
# Revision: 0
# Processed by: cddbd v1.5.1PL0 Copyright (c) Steve Scherf et al.
# Submitted via: audiograbber 1.83.01
#
DISCID=4b122716
DTITLE=Verschiedene - Wunschmelodien Nr . 1
DYEAR=2005
DGENRE=National Folk
TTITLE0=Al Bano and  Romina Power - Sembre Sembre
TTITLE1=Howard Carpendale - Hello Again
TTITLE2=Ursprung Buam - Don Camillo und Pepone
TTITLE3=Badesalz - What a Looking For
TTITLE4=Pardon Wagoner and Dolly Pardon - Island Indusrtie
TTITLE5=James Last - Wenn süß das Mondlicht über die Hügel scheint
TTITLE6=Milva - Ein Schiff wird kommen
TTITLE7=Freddy - La Paloma
TTITLE8=Ursprung Buam - 
TTITLE9=Don Williams - My best Friend
TTITLE10=Al Bano and Romina Power -  Canzone Blue
TTITLE11=James Last - Ay no Digas
TTITLE12=Andrea Jürgens - Nach so einer Nacht
TTITLE13=George Baker Selection - Una Paloma Blanca 
TTITLE14=Fernando Express - Weiße Taube Sehnsucht
TTITLE15=Clen Campell - Rhinestone Cowboy
TTITLE16=Lolita - Fahre mich in die Ferne Matrose
TTITLE17=James Last - Biskaya
TTITLE18=Nana Mouskouri - Weiße Rosen aus Athen
TTITLE19=Ricky King - Goodbye my Love Goodbye
TTITLE20=Juliane Werding - Stimmen im Wind
TTITLE21=John Denver - Country Roads
EXTD=
EXTT0=
EXTT1=
EXTT2=
EXTT3=
EXTT4=
EXTT5=
EXTT6=
EXTT7=
EXTT8=
EXTT9=
EXTT10=
EXTT11=
EXTT12=
EXTT13=
EXTT14=
EXTT15=
EXTT16=
EXTT17=
EXTT18=
EXTT19=
EXTT20=
EXTT21=
PLAYORDER=
